<svg xmlns="http://www.w3.org/2000/svg" xmlns:xlink="http://www.w3.org/1999/xlink" width="1024" zoomAndPan="magnify" viewBox="0 0 768 767.999994" height="1024" preserveAspectRatio="xMidYMid meet" version="1.0"><defs><g/><clipPath id="915cab60b1"><rect x="0" width="583" y="0" height="115"/></clipPath><clipPath id="ccd8cab09d"><rect x="0" width="219" y="0" height="72"/></clipPath></defs><g transform="matrix(1, 0, 0, 1, 93, 409)"><g clip-path="url(#915cab60b1)"><g fill="#b51f84" fill-opacity="1"><g transform="translate(0.306471, 95.243062)"><g><path d="M 18.875 -75.5 L 64.171875 -75.5 C 66.941406 -75.5 69.472656 -74.820312 71.765625 -73.46875 C 74.066406 -72.113281 75.894531 -70.285156 77.25 -67.984375 C 78.601562 -65.691406 79.28125 -63.164062 79.28125 -60.40625 L 79.28125 0 L 64.171875 0 L 64.171875 -30.203125 L 18.875 -30.203125 L 18.875 0 L 3.78125 0 L 3.78125 -60.40625 C 3.78125 -63.164062 4.453125 -65.691406 5.796875 -67.984375 C 7.148438 -70.285156 8.972656 -72.113281 11.265625 -73.46875 C 13.566406 -74.820312 16.101562 -75.5 18.875 -75.5 Z M 18.875 -60.40625 L 18.875 -45.296875 L 64.171875 -45.296875 L 64.171875 -60.40625 Z M 18.875 -60.40625 "/></g></g></g><g fill="#b51f84" fill-opacity="1"><g transform="translate(83.357953, 95.243062)"><g><path d="M 79.28125 0 L 18.875 0 C 16.101562 0 13.566406 -0.675781 11.265625 -2.03125 C 8.972656 -3.382812 7.148438 -5.207031 5.796875 -7.5 C 4.453125 -9.800781 3.78125 -12.332031 3.78125 -15.09375 L 3.78125 -60.40625 C 3.78125 -63.164062 4.453125 -65.691406 5.796875 -67.984375 C 7.148438 -70.285156 8.972656 -72.113281 11.265625 -73.46875 C 13.566406 -74.820312 16.101562 -75.5 18.875 -75.5 L 79.28125 -75.5 L 79.28125 -60.40625 L 18.875 -60.40625 L 18.875 -15.09375 L 79.28125 -15.09375 Z M 79.28125 0 "/></g></g></g><g fill="#b51f84" fill-opacity="1"><g transform="translate(166.409434, 95.243062)"><g><path d="M 18.875 -75.5 L 64.171875 -75.5 C 66.941406 -75.5 69.472656 -74.820312 71.765625 -73.46875 C 74.066406 -72.113281 75.894531 -70.285156 77.25 -67.984375 C 78.601562 -65.691406 79.28125 -63.164062 79.28125 -60.40625 L 79.28125 0 L 64.171875 0 L 64.171875 -30.203125 L 18.875 -30.203125 L 18.875 0 L 3.78125 0 L 3.78125 -60.40625 C 3.78125 -63.164062 4.453125 -65.691406 5.796875 -67.984375 C 7.148438 -70.285156 8.972656 -72.113281 11.265625 -73.46875 C 13.566406 -74.820312 16.101562 -75.5 18.875 -75.5 Z M 18.875 -60.40625 L 18.875 -45.296875 L 64.171875 -45.296875 L 64.171875 -60.40625 Z M 18.875 -60.40625 "/></g></g></g><g fill="#b51f84" fill-opacity="1"><g transform="translate(249.460915, 95.243062)"><g><path d="M 64.171875 0 L 3.78125 0 L 3.78125 -75.5 L 64.171875 -75.5 C 66.941406 -75.5 69.472656 -74.820312 71.765625 -73.46875 C 74.066406 -72.113281 75.894531 -70.285156 77.25 -67.984375 C 78.601562 -65.691406 79.28125 -63.164062 79.28125 -60.40625 L 79.28125 -15.09375 C 79.28125 -12.332031 78.601562 -9.800781 77.25 -7.5 C 75.894531 -5.207031 74.066406 -3.382812 71.765625 -2.03125 C 69.472656 -0.675781 66.941406 0 64.171875 0 Z M 18.875 -60.40625 L 18.875 -15.09375 L 64.171875 -15.09375 L 64.171875 -60.40625 Z M 18.875 -60.40625 "/></g></g></g><g fill="#b51f84" fill-opacity="1"><g transform="translate(332.512396, 95.243062)"><g><path d="M 79.28125 -75.5 L 79.28125 -60.40625 L 18.875 -60.40625 L 18.875 -45.296875 L 79.28125 -45.296875 L 79.28125 -30.203125 L 18.875 -30.203125 L 18.875 -15.09375 L 79.28125 -15.09375 L 79.28125 0 L 18.875 0 C 16.101562 0 13.566406 -0.675781 11.265625 -2.03125 C 8.972656 -3.382812 7.148438 -5.207031 5.796875 -7.5 C 4.453125 -9.800781 3.78125 -12.332031 3.78125 -15.09375 L 3.78125 -60.40625 C 3.78125 -63.164062 4.453125 -65.691406 5.796875 -67.984375 C 7.148438 -70.285156 8.972656 -72.113281 11.265625 -73.46875 C 13.566406 -74.820312 16.101562 -75.5 18.875 -75.5 Z M 79.28125 -75.5 "/></g></g></g><g fill="#b51f84" fill-opacity="1"><g transform="translate(415.563877, 95.243062)"><g><path d="M 18.875 -75.5 L 64.171875 -75.5 C 66.941406 -75.5 69.472656 -74.820312 71.765625 -73.46875 C 74.066406 -72.113281 75.894531 -70.285156 77.25 -67.984375 C 78.601562 -65.691406 79.28125 -63.164062 79.28125 -60.40625 L 79.28125 0 L 64.171875 0 L 64.171875 -60.40625 L 49.078125 -60.40625 L 49.078125 0 L 33.96875 0 L 33.96875 -60.40625 L 18.875 -60.40625 L 18.875 0 L 3.78125 0 L 3.78125 -60.40625 C 3.78125 -63.164062 4.453125 -65.691406 5.796875 -67.984375 C 7.148438 -70.285156 8.972656 -72.113281 11.265625 -73.46875 C 13.566406 -74.820312 16.101562 -75.5 18.875 -75.5 Z M 18.875 -75.5 "/></g></g></g><g fill="#b51f84" fill-opacity="1"><g transform="translate(498.615358, 95.243062)"><g><path d="M 64.171875 -45.296875 L 64.171875 -75.5 L 79.28125 -75.5 L 79.28125 -15.09375 C 79.28125 -12.332031 78.601562 -9.800781 77.25 -7.5 C 75.894531 -5.207031 74.066406 -3.382812 71.765625 -2.03125 C 69.472656 -0.675781 66.941406 0 64.171875 0 L 3.78125 0 L 3.78125 -15.09375 L 64.171875 -15.09375 L 64.171875 -30.203125 L 18.875 -30.203125 C 16.101562 -30.203125 13.566406 -30.878906 11.265625 -32.234375 C 8.972656 -33.585938 7.148438 -35.410156 5.796875 -37.703125 C 4.453125 -39.992188 3.78125 -42.523438 3.78125 -45.296875 L 3.78125 -75.5 L 18.875 -75.5 L 18.875 -45.296875 Z M 64.171875 -45.296875 "/></g></g></g></g></g><g transform="matrix(1, 0, 0, 1, 275, 506)"><g clip-path="url(#ccd8cab09d)"><g fill="#b51f84" fill-opacity="1"><g transform="translate(0.752245, 46.839402)"><g><path d="M 2.296875 -24.8125 L 5.671875 -24.8125 L 5.671875 -4.71875 C 5.671875 -4.3125 5.816406 -3.960938 6.109375 -3.671875 C 6.410156 -3.390625 6.765625 -3.25 7.171875 -3.25 L 19.390625 -3.25 C 19.816406 -3.25 20.175781 -3.390625 20.46875 -3.671875 C 20.769531 -3.960938 20.921875 -4.3125 20.921875 -4.71875 L 20.921875 -24.8125 L 24.265625 -24.8125 L 24.265625 -3.546875 C 24.265625 -2.898438 24.101562 -2.3125 23.78125 -1.78125 C 23.46875 -1.25 23.039062 -0.816406 22.5 -0.484375 C 21.957031 -0.160156 21.367188 0 20.734375 0 L 5.84375 0 C 5.195312 0 4.609375 -0.160156 4.078125 -0.484375 C 3.546875 -0.816406 3.113281 -1.25 2.78125 -1.78125 C 2.457031 -2.3125 2.296875 -2.898438 2.296875 -3.546875 Z M 2.296875 -24.8125 "/></g></g></g><g fill="#b51f84" fill-opacity="1"><g transform="translate(27.310242, 46.839402)"><g><path d="M 2.296875 -24.8125 L 5.671875 -24.8125 L 20.921875 -5.140625 L 20.921875 -24.8125 L 24.265625 -24.8125 L 24.265625 0 L 20.921875 0 L 5.671875 -19.671875 L 5.671875 0 L 2.296875 0 Z M 2.296875 -24.8125 "/></g></g></g><g fill="#b51f84" fill-opacity="1"><g transform="translate(53.86824, 46.839402)"><g><path d="M 5.84375 -24.8125 L 20.734375 -24.8125 C 21.367188 -24.8125 21.957031 -24.648438 22.5 -24.328125 C 23.039062 -24.015625 23.46875 -23.585938 23.78125 -23.046875 C 24.101562 -22.503906 24.265625 -21.910156 24.265625 -21.265625 L 24.265625 -3.546875 C 24.265625 -2.898438 24.101562 -2.3125 23.78125 -1.78125 C 23.46875 -1.25 23.039062 -0.816406 22.5 -0.484375 C 21.957031 -0.160156 21.367188 0 20.734375 0 L 5.84375 0 C 5.195312 0 4.609375 -0.160156 4.078125 -0.484375 C 3.546875 -0.816406 3.113281 -1.25 2.78125 -1.78125 C 2.457031 -2.3125 2.296875 -2.898438 2.296875 -3.546875 L 2.296875 -21.265625 C 2.296875 -21.910156 2.457031 -22.503906 2.78125 -23.046875 C 3.113281 -23.585938 3.546875 -24.015625 4.078125 -24.328125 C 4.609375 -24.648438 5.195312 -24.8125 5.84375 -24.8125 Z M 7.171875 -21.5625 C 6.765625 -21.5625 6.410156 -21.421875 6.109375 -21.140625 C 5.816406 -20.867188 5.671875 -20.519531 5.671875 -20.09375 L 5.671875 -4.71875 C 5.671875 -4.3125 5.816406 -3.960938 6.109375 -3.671875 C 6.410156 -3.390625 6.765625 -3.25 7.171875 -3.25 L 19.390625 -3.25 C 19.816406 -3.25 20.175781 -3.390625 20.46875 -3.671875 C 20.769531 -3.960938 20.921875 -4.3125 20.921875 -4.71875 L 20.921875 -20.09375 C 20.921875 -20.519531 20.769531 -20.867188 20.46875 -21.140625 C 20.175781 -21.421875 19.816406 -21.5625 19.390625 -21.5625 Z M 7.171875 -21.5625 "/></g></g></g><g fill="#b51f84" fill-opacity="1"><g transform="translate(80.426238, 46.839402)"><g><path d="M 2.296875 -24.8125 L 22.703125 -24.8125 L 22.703125 -21.5625 L 5.671875 -21.5625 L 5.671875 -14.03125 L 19.171875 -14.03125 L 19.171875 -10.78125 L 5.671875 -10.78125 L 5.671875 0 L 2.296875 0 Z M 2.296875 -24.8125 "/></g></g></g><g fill="#b51f84" fill-opacity="1"><g transform="translate(103.222119, 46.839402)"><g><path d="M 2.296875 -24.8125 L 22.703125 -24.8125 L 22.703125 -21.5625 L 5.671875 -21.5625 L 5.671875 -14.03125 L 19.171875 -14.03125 L 19.171875 -10.78125 L 5.671875 -10.78125 L 5.671875 0 L 2.296875 0 Z M 2.296875 -24.8125 "/></g></g></g><g fill="#b51f84" fill-opacity="1"><g transform="translate(126.018001, 46.839402)"><g><path d="M 2.296875 -24.8125 L 5.671875 -24.8125 L 5.671875 0 L 2.296875 0 Z M 2.296875 -24.8125 "/></g></g></g><g fill="#b51f84" fill-opacity="1"><g transform="translate(133.924832, 46.839402)"><g><path d="M 5.84375 -24.8125 L 20.734375 -24.8125 C 21.734375 -24.8125 22.570312 -24.46875 23.25 -23.78125 C 23.925781 -23.101562 24.265625 -22.265625 24.265625 -21.265625 L 24.265625 -19.109375 L 20.921875 -19.109375 L 20.921875 -20.09375 C 20.921875 -20.519531 20.769531 -20.867188 20.46875 -21.140625 C 20.175781 -21.421875 19.816406 -21.5625 19.390625 -21.5625 L 7.171875 -21.5625 C 6.765625 -21.5625 6.410156 -21.421875 6.109375 -21.140625 C 5.816406 -20.867188 5.671875 -20.519531 5.671875 -20.09375 L 5.671875 -4.71875 C 5.671875 -4.3125 5.816406 -3.960938 6.109375 -3.671875 C 6.410156 -3.390625 6.765625 -3.25 7.171875 -3.25 L 19.390625 -3.25 C 19.816406 -3.25 20.175781 -3.390625 20.46875 -3.671875 C 20.769531 -3.960938 20.921875 -4.3125 20.921875 -4.71875 L 20.921875 -5.703125 L 24.265625 -5.703125 L 24.265625 -3.546875 C 24.265625 -2.566406 23.925781 -1.726562 23.25 -1.03125 C 22.570312 -0.34375 21.734375 0 20.734375 0 L 5.84375 0 C 4.863281 0 4.023438 -0.34375 3.328125 -1.03125 C 2.640625 -1.726562 2.296875 -2.566406 2.296875 -3.546875 L 2.296875 -21.265625 C 2.296875 -22.265625 2.640625 -23.101562 3.328125 -23.78125 C 4.023438 -24.46875 4.863281 -24.8125 5.84375 -24.8125 Z M 5.84375 -24.8125 "/></g></g></g><g fill="#b51f84" fill-opacity="1"><g transform="translate(159.972712, 46.839402)"><g><path d="M 2.296875 -24.8125 L 5.671875 -24.8125 L 5.671875 0 L 2.296875 0 Z M 2.296875 -24.8125 "/></g></g></g><g fill="#b51f84" fill-opacity="1"><g transform="translate(167.879543, 46.839402)"><g><path d="M 10.75 -24.8125 L 15.8125 -24.8125 L 26.21875 0 L 22.609375 0 L 19.796875 -6.5625 L 6.734375 -6.5625 L 3.953125 0 L 0.34375 0 Z M 8.125 -9.828125 L 18.4375 -9.828125 L 13.265625 -21.96875 Z M 8.125 -9.828125 "/></g></g></g><g fill="#b51f84" fill-opacity="1"><g transform="translate(194.43754, 46.839402)"><g><path d="M 2.296875 -24.8125 L 5.671875 -24.8125 L 5.671875 -3.25 L 22.703125 -3.25 L 22.703125 0 L 2.296875 0 Z M 2.296875 -24.8125 "/></g></g></g></g></g></svg>