<svg xmlns="http://www.w3.org/2000/svg" xmlns:xlink="http://www.w3.org/1999/xlink" width="1024" zoomAndPan="magnify" viewBox="0 0 768 767.999994" height="1024" preserveAspectRatio="xMidYMid meet" version="1.0"><defs><g/><clipPath id="5fd464b0ff"><rect x="0" width="583" y="0" height="115"/></clipPath></defs><g transform="matrix(1, 0, 0, 1, 93, 409)"><g clip-path="url(#5fd464b0ff)"><g fill="#b51f84" fill-opacity="1"><g transform="translate(0.306471, 95.243062)"><g><path d="M 18.875 -75.5 L 64.171875 -75.5 C 66.941406 -75.5 69.472656 -74.820312 71.765625 -73.46875 C 74.066406 -72.113281 75.894531 -70.285156 77.25 -67.984375 C 78.601562 -65.691406 79.28125 -63.164062 79.28125 -60.40625 L 79.28125 0 L 64.171875 0 L 64.171875 -30.203125 L 18.875 -30.203125 L 18.875 0 L 3.78125 0 L 3.78125 -60.40625 C 3.78125 -63.164062 4.453125 -65.691406 5.796875 -67.984375 C 7.148438 -70.285156 8.972656 -72.113281 11.265625 -73.46875 C 13.566406 -74.820312 16.101562 -75.5 18.875 -75.5 Z M 18.875 -60.40625 L 18.875 -45.296875 L 64.171875 -45.296875 L 64.171875 -60.40625 Z M 18.875 -60.40625 "/></g></g></g><g fill="#b51f84" fill-opacity="1"><g transform="translate(83.357953, 95.243062)"><g><path d="M 79.28125 0 L 18.875 0 C 16.101562 0 13.566406 -0.675781 11.265625 -2.03125 C 8.972656 -3.382812 7.148438 -5.207031 5.796875 -7.5 C 4.453125 -9.800781 3.78125 -12.332031 3.78125 -15.09375 L 3.78125 -60.40625 C 3.78125 -63.164062 4.453125 -65.691406 5.796875 -67.984375 C 7.148438 -70.285156 8.972656 -72.113281 11.265625 -73.46875 C 13.566406 -74.820312 16.101562 -75.5 18.875 -75.5 L 79.28125 -75.5 L 79.28125 -60.40625 L 18.875 -60.40625 L 18.875 -15.09375 L 79.28125 -15.09375 Z M 79.28125 0 "/></g></g></g><g fill="#b51f84" fill-opacity="1"><g transform="translate(166.409434, 95.243062)"><g><path d="M 18.875 -75.5 L 64.171875 -75.5 C 66.941406 -75.5 69.472656 -74.820312 71.765625 -73.46875 C 74.066406 -72.113281 75.894531 -70.285156 77.25 -67.984375 C 78.601562 -65.691406 79.28125 -63.164062 79.28125 -60.40625 L 79.28125 0 L 64.171875 0 L 64.171875 -30.203125 L 18.875 -30.203125 L 18.875 0 L 3.78125 0 L 3.78125 -60.40625 C 3.78125 -63.164062 4.453125 -65.691406 5.796875 -67.984375 C 7.148438 -70.285156 8.972656 -72.113281 11.265625 -73.46875 C 13.566406 -74.820312 16.101562 -75.5 18.875 -75.5 Z M 18.875 -60.40625 L 18.875 -45.296875 L 64.171875 -45.296875 L 64.171875 -60.40625 Z M 18.875 -60.40625 "/></g></g></g><g fill="#b51f84" fill-opacity="1"><g transform="translate(249.460915, 95.243062)"><g><path d="M 64.171875 0 L 3.78125 0 L 3.78125 -75.5 L 64.171875 -75.5 C 66.941406 -75.5 69.472656 -74.820312 71.765625 -73.46875 C 74.066406 -72.113281 75.894531 -70.285156 77.25 -67.984375 C 78.601562 -65.691406 79.28125 -63.164062 79.28125 -60.40625 L 79.28125 -15.09375 C 79.28125 -12.332031 78.601562 -9.800781 77.25 -7.5 C 75.894531 -5.207031 74.066406 -3.382812 71.765625 -2.03125 C 69.472656 -0.675781 66.941406 0 64.171875 0 Z M 18.875 -60.40625 L 18.875 -15.09375 L 64.171875 -15.09375 L 64.171875 -60.40625 Z M 18.875 -60.40625 "/></g></g></g><g fill="#b51f84" fill-opacity="1"><g transform="translate(332.512396, 95.243062)"><g><path d="M 79.28125 -75.5 L 79.28125 -60.40625 L 18.875 -60.40625 L 18.875 -45.296875 L 79.28125 -45.296875 L 79.28125 -30.203125 L 18.875 -30.203125 L 18.875 -15.09375 L 79.28125 -15.09375 L 79.28125 0 L 18.875 0 C 16.101562 0 13.566406 -0.675781 11.265625 -2.03125 C 8.972656 -3.382812 7.148438 -5.207031 5.796875 -7.5 C 4.453125 -9.800781 3.78125 -12.332031 3.78125 -15.09375 L 3.78125 -60.40625 C 3.78125 -63.164062 4.453125 -65.691406 5.796875 -67.984375 C 7.148438 -70.285156 8.972656 -72.113281 11.265625 -73.46875 C 13.566406 -74.820312 16.101562 -75.5 18.875 -75.5 Z M 79.28125 -75.5 "/></g></g></g><g fill="#b51f84" fill-opacity="1"><g transform="translate(415.563877, 95.243062)"><g><path d="M 18.875 -75.5 L 64.171875 -75.5 C 66.941406 -75.5 69.472656 -74.820312 71.765625 -73.46875 C 74.066406 -72.113281 75.894531 -70.285156 77.25 -67.984375 C 78.601562 -65.691406 79.28125 -63.164062 79.28125 -60.40625 L 79.28125 0 L 64.171875 0 L 64.171875 -60.40625 L 49.078125 -60.40625 L 49.078125 0 L 33.96875 0 L 33.96875 -60.40625 L 18.875 -60.40625 L 18.875 0 L 3.78125 0 L 3.78125 -60.40625 C 3.78125 -63.164062 4.453125 -65.691406 5.796875 -67.984375 C 7.148438 -70.285156 8.972656 -72.113281 11.265625 -73.46875 C 13.566406 -74.820312 16.101562 -75.5 18.875 -75.5 Z M 18.875 -75.5 "/></g></g></g><g fill="#b51f84" fill-opacity="1"><g transform="translate(498.615358, 95.243062)"><g><path d="M 64.171875 -45.296875 L 64.171875 -75.5 L 79.28125 -75.5 L 79.28125 -15.09375 C 79.28125 -12.332031 78.601562 -9.800781 77.25 -7.5 C 75.894531 -5.207031 74.066406 -3.382812 71.765625 -2.03125 C 69.472656 -0.675781 66.941406 0 64.171875 0 L 3.78125 0 L 3.78125 -15.09375 L 64.171875 -15.09375 L 64.171875 -30.203125 L 18.875 -30.203125 C 16.101562 -30.203125 13.566406 -30.878906 11.265625 -32.234375 C 8.972656 -33.585938 7.148438 -35.410156 5.796875 -37.703125 C 4.453125 -39.992188 3.78125 -42.523438 3.78125 -45.296875 L 3.78125 -75.5 L 18.875 -75.5 L 18.875 -45.296875 Z M 64.171875 -45.296875 "/></g></g></g></g></g></svg>